<svg xmlns:xlink="http://www.w3.org/1999/xlink" width="24" height="24" viewBox="0 0 24 24" fill="none" xmlns="http://www.w3.org/2000/svg">
                    <circle opacity="0.3" cx="12" cy="12" r="12" transform="rotate(-90 12 12)" fill="#FFFFFF"></circle>
                    <g clip-path="url(#clip0)" fill="none">
                    <path d="M12.5497 7.20296L12.1565 7.59604C12.0329 7.71945 11.9645 7.88443 11.9645 8.06004C11.9645 8.23584 12.0329 8.41574 12.1565 8.53916L14.6827 11.0805L6.65668 11.0805C6.29473 11.0805 6 11.3447 6 11.7066L6 12.2628C6 12.6245 6.29473 12.9555 6.65668 12.9555L14.7113 12.9555L12.1565 15.4918C12.0329 15.6155 11.9645 15.771 11.9645 15.9468C11.9645 16.1224 12.0329 16.2828 12.1565 16.4063L12.5497 16.7972C12.8056 17.053 13.2219 17.0519 13.4778 16.7961L17.8084 12.465C17.9317 12.3417 18 12.1762 18 11.9992L18 11.9973C18 11.8216 17.9317 11.6565 17.8084 11.5332L13.4779 7.20296C13.222 6.94696 12.8056 6.94696 12.5497 7.20296Z" fill="#FFFFFF"></path>
                    </g>
                    <defs>
                    <clipPath id="clip0">
                    <rect width="12" height="12" fill="white" transform="translate(6 18) rotate(-90)"></rect>
                    </clipPath>
                    </defs>
                </svg>