<svg xmlns:xlink="http://www.w3.org/1999/xlink" width="71" height="72" viewBox="0 0 71 72" xmlns="http://www.w3.org/2000/svg">
                            <path fill-rule="evenodd" clip-rule="evenodd" d="M45.7703 43.6168L43.4884 39.5958L32.3361 51.3677L45.7703 43.6168ZM47.2909 42.7395L48.9385 41.7889L48.9458 41.7962L58.0851 36.8257C60.644 35.3529 60.644 32.9599 58.0851 31.4871L53.6101 28.9118L44.7507 38.2634L47.2909 42.7395ZM52.0452 28.0112L49.1319 26.3346L49.1287 26.3327L49.1278 26.3322L48.7561 26.1114L48.7528 26.1149L32.5161 16.705L43.8448 36.6672L52.0452 28.0112ZM29.5085 14.962L42.5825 37.9996L27.003 54.4447L22.4405 57.077C20.8778 57.7763 19.8598 57.6792 18.9785 56.8789L18.9707 56.8868L18.7878 56.7028C18.2395 56.1506 17.874 55.2301 17.874 54.1254V13.4418C17.874 12.3373 18.1106 11.5351 18.6589 10.9829L18.6708 10.9829C19.5798 10.121 20.8363 9.96831 22.4406 10.8658L29.5085 14.962Z" fill="#2B99FF"></path>
                        </svg>