<svg xmlns:xlink="http://www.w3.org/1999/xlink" class="main__graph-container-logo" width="120" height="30" viewBox="0 0 120 30" fill="none" xmlns="http://www.w3.org/2000/svg">
                            <g opacity="0.2" fill="none">
                            <path d="M51.0218 14.9755C51.0218 15.6255 50.9487 16.2515 50.8269 16.8535C50.6807 17.4554 50.4858 18.0092 50.2421 18.5389C49.9741 19.0685 49.6817 19.526 49.2919 19.9835C48.9264 20.4169 48.5122 20.8021 48.0249 21.1392L51.8015 25.1841H49.5355C49.2188 25.1841 48.902 25.136 48.6584 25.0637C48.3904 24.9674 48.1467 24.823 47.9274 24.5822L45.7589 22.2226C45.4178 22.319 45.0523 22.3912 44.6868 22.4393C44.3213 22.4875 43.9315 22.5116 43.5416 22.5116C42.4208 22.5116 41.3975 22.319 40.4716 21.9578C39.5457 21.5726 38.7416 21.0669 38.0838 20.3928C37.4259 19.7186 36.9142 18.9241 36.5487 18.0092C36.1833 17.0942 36.0127 16.1071 36.0127 15.0236C36.0127 13.9401 36.1833 12.953 36.5487 12.038C36.9142 11.1231 37.4259 10.3286 38.0838 9.65442C38.7416 8.98026 39.5457 8.47465 40.4716 8.08941C41.3975 7.70418 42.4208 7.53564 43.5416 7.53564C44.6624 7.53564 45.6858 7.72826 46.6117 8.11349C47.5376 8.49873 48.3173 9.00434 48.9751 9.6785C49.633 10.3527 50.1447 11.1472 50.5102 12.0621C50.8513 12.9048 51.0218 13.9161 51.0218 14.9755ZM48.1954 14.9755C48.1954 14.1809 48.0736 13.4586 47.8787 12.8085C47.6594 12.1584 47.3426 11.6287 46.9528 11.1713C46.5629 10.7138 46.0513 10.3767 45.4909 10.16C44.9061 9.91927 44.2482 9.79889 43.5416 9.79889C42.8107 9.79889 42.1528 9.91927 41.5924 10.16C41.0076 10.4008 40.5203 10.7379 40.1061 11.1713C39.6919 11.6287 39.3751 12.1584 39.1558 12.8085C38.9366 13.4345 38.8391 14.1568 38.8391 14.9755C38.8391 15.77 38.9609 16.4923 39.1558 17.1424C39.3751 17.7684 39.6919 18.3222 40.1061 18.7556C40.5203 19.1889 41.0076 19.526 41.5924 19.7668C42.1772 20.0076 42.835 20.1279 43.5416 20.1279C44.2726 20.1279 44.9305 20.0076 45.4909 19.7668C46.0756 19.526 46.5629 19.1889 46.9528 18.7556C47.367 18.3222 47.6594 17.7684 47.8787 17.1424C48.0736 16.5164 48.1954 15.7941 48.1954 14.9755Z" fill="#FFFFFF"></path>
                            <path d="M59.1583 20.104C59.6943 20.104 60.1573 20.0077 60.5958 19.8391C61.01 19.6706 61.3755 19.4058 61.6679 19.0928C61.9603 18.7798 62.1796 18.3945 62.3258 17.9371C62.472 17.4796 62.5694 16.974 62.5694 16.4202V7.63208H65.3227V16.4202C65.3227 17.287 65.1765 18.1056 64.9085 18.8279C64.6161 19.5743 64.2263 20.2003 63.6903 20.7541C63.1542 21.2838 62.5207 21.7172 61.7654 22.0061C61.01 22.3191 60.1573 22.4635 59.207 22.4635C58.2567 22.4635 57.404 22.3191 56.6486 22.0061C55.8933 21.7172 55.2354 21.2838 54.7237 20.7541C54.1877 20.2244 53.7735 19.5743 53.5055 18.8279C53.2131 18.0815 53.0669 17.287 53.0669 16.4202V7.63208H55.8202V16.3961C55.8202 16.9499 55.8933 17.4555 56.0395 17.913C56.1857 18.3704 56.405 18.7557 56.6974 19.0687C56.9897 19.3817 57.3309 19.6465 57.7694 19.8151C58.1593 20.0318 58.6222 20.104 59.1583 20.104Z" fill="#FFFFFF"></path>
                            <path d="M82.3558 14.9758C82.3558 16.0592 82.1852 17.0464 81.8197 17.9613C81.4543 18.8762 80.9426 19.6708 80.2847 20.3449C79.6269 21.0191 78.8472 21.5247 77.9213 21.9099C76.9954 22.2952 75.972 22.4637 74.8512 22.4637C73.7304 22.4637 72.707 22.2711 71.7812 21.9099C70.8553 21.5247 70.0512 21.0191 69.3933 20.3449C68.7355 19.6708 68.2238 18.8762 67.8583 17.9613C67.4928 17.0464 67.3223 16.0592 67.3223 14.9758C67.3223 13.8923 67.4928 12.9051 67.8583 11.9902C68.2238 11.0753 68.7355 10.2807 69.3933 9.60658C70.0512 8.93242 70.8553 8.4268 71.7812 8.04157C72.707 7.65634 73.7304 7.48779 74.8512 7.48779C75.972 7.48779 76.9954 7.68041 77.9213 8.06564C78.8472 8.45087 79.6269 8.95649 80.2847 9.63065C80.9426 10.3048 81.4543 11.0994 81.8197 12.0143C82.1852 12.9051 82.3558 13.9164 82.3558 14.9758ZM79.5294 14.9758C79.5294 14.1812 79.4076 13.4589 79.2126 12.8088C78.9933 12.1587 78.6766 11.629 78.2867 11.1716C77.8969 10.7141 77.3852 10.377 76.8248 10.1603C76.2644 9.94365 75.5822 9.79919 74.8756 9.79919C74.1446 9.79919 73.4867 9.91958 72.9263 10.1603C72.3416 10.4011 71.8542 10.7382 71.44 11.1716C71.0258 11.629 70.7091 12.1587 70.4898 12.8088C70.2705 13.4348 70.173 14.1571 70.173 14.9758C70.173 15.7703 70.2949 16.4926 70.4898 17.1427C70.7091 17.7687 71.0258 18.3225 71.44 18.7559C71.8542 19.1892 72.3416 19.5263 72.9263 19.7671C73.5111 20.0079 74.169 20.1282 74.8756 20.1282C75.6065 20.1282 76.2644 20.0079 76.8248 19.7671C77.4096 19.5263 77.8969 19.1892 78.2867 18.7559C78.701 18.3225 78.9933 17.7687 79.2126 17.1427C79.4319 16.5167 79.5294 15.7944 79.5294 14.9758Z" fill="#FFFFFF"></path>
                            <path d="M94.1974 7.65649V9.89566H89.7385V22.3194H86.9852V9.89566H82.502V7.65649H94.1974V7.65649Z" fill="#FFFFFF"></path>
                            <path d="M105.284 7.65649V9.82343H98.7049V13.8924H103.895V15.9872H98.7049V20.1284H105.284V22.3194H95.9272V7.65649H105.284Z" fill="#FFFFFF"></path>
                            <path d="M111.254 14.7589L106.527 7.65616H109.28C109.475 7.65616 109.621 7.68023 109.694 7.72839C109.792 7.77654 109.865 7.87285 109.914 7.96916L113.301 13.3624C113.325 13.2661 113.374 13.1939 113.422 13.0976C113.471 13.0253 113.52 12.929 113.569 12.8327L116.663 8.01731C116.809 7.77654 117.004 7.63208 117.248 7.63208H119.904L115.079 14.6626L120.001 22.3191H117.248C117.077 22.3191 116.907 22.2709 116.809 22.1746C116.687 22.0783 116.59 21.982 116.517 21.8616L113.081 16.2517C113.057 16.3239 113.033 16.3961 112.984 16.4924C112.959 16.5647 112.911 16.6369 112.886 16.6851L109.573 21.8375C109.5 21.9579 109.402 22.0542 109.305 22.1505C109.183 22.2468 109.061 22.295 108.89 22.295H106.308L111.254 14.7589Z" fill="#FFFFFF"></path>
                            <path d="M26.4407 22.512V7.51204L20.2165 3.97271V6.5008L24.2107 8.78812V21.236L22.4464 22.2472V12.1348H20.2165V23.5233L18.4031 24.5345V9.29374H16.1732V25.8106L14.3598 26.8459V3.17817L18.4031 5.48957V2.9374L13.2326 0L8.08658 2.9374V5.46549L12.1299 3.17817V26.8459L10.3165 25.8106V9.29374H8.08658V24.5586L6.27323 23.5233V12.1348H4.04329V22.2713L2.22994 21.236V8.78812L2.35246 8.71589L6.27323 6.5008V3.94863L0 7.51204V22.512L13.2326 30L26.4407 22.512Z" fill="#FAFAFA"></path>
                            </g>
                        </svg>