<svg xmlns:xlink="http://www.w3.org/1999/xlink" width="24" height="24" viewBox="0 0 24 24" fill="none" xmlns="http://www.w3.org/2000/svg">
                <path fill-rule="evenodd" clip-rule="evenodd" d="M12.8438 1.53564C7.79166 1.53564 3.6875 5.52254 3.6875 10.4303C3.6875 15.338 7.79166 19.3249 12.8438 19.3249H13.3824V22.4642C18.6176 20.0156 22 15.1392 22 10.4303C22 5.52254 17.8958 1.53564 12.8438 1.53564ZM11.633 12.6668H13.1379V12.5697C13.159 11.3941 13.5062 11.1743 14.4008 10.6376C15.3426 10.0855 15.9214 9.30855 15.9214 8.15846C15.9214 6.49721 14.627 5.37267 12.6959 5.37267C10.9227 5.37267 9.50195 6.37964 9.43355 8.2198H11.0332C11.0963 7.13615 11.8908 6.66078 12.6959 6.66078C13.5904 6.66078 14.3166 7.23838 14.3166 8.14312C14.3166 8.90474 13.8272 9.44145 13.201 9.81971C12.2223 10.4024 11.633 11.0275 11.633 12.5697V12.6668ZM12.4277 15.6374C13.0013 15.6374 13.4801 15.1825 13.4801 14.6151C13.4801 14.058 13.0013 13.5979 12.4277 13.5979C11.8489 13.5979 11.3753 14.058 11.3753 14.6151C11.3753 15.1825 11.8489 15.6374 12.4277 15.6374Z" fill="#FFFFFF"></path>
            </svg>